<svg width="360" height="360" viewBox="0 0 360 360" fill="none" xmlns="http://www.w3.org/2000/svg">
<g clip-path="url(#clip0_2398_15727)">
<path d="M303.896 62.0131H301.298V55.7793H295.064V53.1819H303.896V62.0131Z" fill="black"/>
<path d="M317.922 110.325C301.169 110.325 287.402 96.6882 287.402 79.8051C287.402 69.1558 292.857 59.4155 301.948 53.8311L303.246 56.0389C294.935 61.1038 289.87 70.0649 289.87 79.8051C289.87 95.1298 302.337 107.727 317.792 107.727C320.389 107.727 322.987 107.338 325.454 106.688L326.104 109.156C323.506 109.935 320.779 110.325 317.922 110.325ZM333.636 105.909L332.337 103.701C340.779 98.6363 345.714 89.6753 345.714 79.8051C345.714 64.4804 333.246 51.883 317.792 51.883C315.195 51.883 312.597 52.2727 310.13 52.922L309.35 50.4545C312.078 49.6753 314.935 49.2856 317.792 49.2856C334.545 49.2856 348.311 62.922 348.311 79.8051C348.311 90.5843 342.857 100.325 333.636 105.909Z" fill="black"/>
<path d="M340.779 106.429H331.818V97.5974H334.416V103.831H340.779V106.429Z" fill="black"/>
<path d="M324.285 90.3248H311.558V87.3378C307.662 85.0001 305.194 80.9741 305.194 76.2988C305.194 69.2858 310.909 63.5715 317.922 63.5715C324.935 63.5715 330.649 69.2858 330.649 76.2988C330.649 80.8443 328.181 85.0001 324.285 87.3378V90.3248ZM314.155 87.7274H321.688V85.7793L322.467 85.3897C325.974 83.7014 328.051 80.1949 328.051 76.2988C328.051 70.7144 323.506 66.1689 317.922 66.1689C312.337 66.1689 307.792 70.7144 307.792 76.2988C307.792 80.1949 310 83.5715 313.376 85.3897L314.155 85.7793V87.7274Z" fill="black"/>
<path d="M324.286 91.6233H311.559V94.2207H324.286V91.6233Z" fill="black"/>
<path d="M319.22 77.5974H316.623V87.7273H319.22V77.5974Z" fill="black"/>
<path d="M320.519 76.2988H315.454V78.8962H320.519V76.2988Z" fill="black"/>
<path d="M312.857 76.4285H310.26C310.26 72.2726 313.636 68.7661 317.922 68.7661V71.3635C315.195 71.3635 312.857 73.5713 312.857 76.4285ZM336.234 308.376C336.234 308.376 346.494 288.636 340.779 285.26C333.636 281.104 327.792 293.312 330.779 298.117C333.766 302.922 331.688 287.467 324.416 289.545C318.701 291.234 317.013 300.325 336.234 308.376Z" fill="black"/>
<path d="M313.377 129.805H310.779V137.857H313.377V129.805Z" fill="#282D33"/>
<path d="M313.377 129.805H310.779V137.857H313.377V129.805Z" fill="#282D33"/>
<path d="M287.005 143.513L285.707 145.763L292.681 149.787L293.979 147.538L287.005 143.513Z" fill="#282D33"/>
<path d="M313.377 180.844H310.779V188.896H313.377V180.844Z" fill="#282D33"/>
<path d="M331.294 168.94L329.996 171.19L336.971 175.213L338.269 172.963L331.294 168.94Z" fill="#282D33"/>
<path d="M337.014 143.515L329.931 147.61L331.231 149.859L338.314 145.764L337.014 143.515Z" fill="#282D33"/>
<path d="M335.065 266.688H332.468V274.74H335.065V266.688Z" fill="#282D33"/>
<path d="M335.065 266.688H332.468V274.74H335.065V266.688Z" fill="#282D33"/>
<path d="M308.67 280.402L307.372 282.652L314.346 286.677L315.644 284.427L308.67 280.402Z" fill="#282D33"/>
<path d="M314.403 305.934L307.429 309.959L308.727 312.209L315.701 308.184L314.403 305.934Z" fill="#282D33"/>
<path d="M335.065 317.727H332.468V325.779H335.065V317.727Z" fill="#282D33"/>
<path d="M352.971 305.828L351.674 308.078L358.649 312.101L359.947 309.851L352.971 305.828Z" fill="#282D33"/>
<path d="M358.694 280.39L351.61 284.485L352.91 286.734L359.994 282.639L358.694 280.39Z" fill="#282D33"/>
<path d="M51.4287 271.364H271.948C288.442 271.364 301.688 284.74 301.688 301.104C301.688 317.598 288.312 330.844 271.948 330.844H51.4287V271.364Z" fill="#FFCD00"/>
<path d="M257.402 332.273C256.623 332.273 256.103 331.753 256.103 330.974C256.103 330.195 256.623 329.675 257.402 329.675C273.116 329.675 285.844 316.948 285.844 301.234C285.844 285.52 273.116 272.792 257.402 272.792C256.623 272.792 256.103 272.273 256.103 271.494C256.103 270.714 256.623 270.195 257.402 270.195C274.545 270.195 288.441 284.091 288.441 301.234C288.571 318.247 274.545 332.273 257.402 332.273ZM217.142 332.273C216.363 332.273 215.844 331.753 215.844 330.974C215.844 330.195 216.363 329.675 217.142 329.675C232.857 329.675 245.584 316.948 245.584 301.234C245.584 285.52 232.857 272.792 217.142 272.792C216.363 272.792 215.844 272.273 215.844 271.494C215.844 270.714 216.363 270.195 217.142 270.195C234.285 270.195 248.181 284.091 248.181 301.234C248.311 318.247 234.285 332.273 217.142 332.273Z" fill="black"/>
<path d="M51.4287 271.364H186.624C203.117 271.364 216.364 284.74 216.364 301.104C216.364 317.598 202.987 330.844 186.624 330.844H51.4287V271.364Z" fill="white"/>
<path d="M186.623 332.273H51.4286C50.6494 332.273 50.1299 331.753 50.1299 330.974V271.364C50.1299 270.584 50.6494 270.065 51.4286 270.065H186.623C203.766 270.065 217.662 283.961 217.662 301.104C217.662 318.247 203.766 332.273 186.623 332.273ZM52.7273 329.675H186.623C202.338 329.675 215.065 316.948 215.065 301.234C215.065 285.519 202.338 272.792 186.623 272.792H52.7273V329.675Z" fill="#080717"/>
<path d="M177.792 316.169H52.9872C52.208 316.169 51.6885 315.649 51.6885 314.87C51.6885 314.091 52.208 313.572 52.9872 313.572H177.792C178.572 313.572 179.091 314.091 179.091 314.87C179.091 315.52 178.442 316.169 177.792 316.169Z" fill="#080717"/>
<path d="M142.338 304.87H54.5458C53.7666 304.87 53.2471 304.351 53.2471 303.571C53.2471 302.792 53.7666 302.273 54.5458 302.273H142.338C143.117 302.273 143.637 302.792 143.637 303.571C143.637 304.221 142.987 304.87 142.338 304.87Z" fill="#080717"/>
<path d="M244.935 159.675H84.0256C73.8957 159.675 65.7139 167.857 65.7139 177.987V178.766C65.7139 188.896 73.8957 197.078 84.0256 197.078H244.935V159.675Z" fill="#FFCD00"/>
<path d="M216.234 195.779C206.883 195.779 199.221 188.117 199.221 178.766V177.987C199.221 168.636 206.883 160.974 216.234 160.974H314.026V195.779H216.234Z" fill="white"/>
<path d="M312.727 162.273V194.48H216.234C207.532 194.48 200.519 187.468 200.519 178.766V177.987C200.519 169.286 207.532 162.273 216.234 162.273H312.727ZM315.324 159.675H216.234C206.104 159.675 197.922 167.857 197.922 177.987V178.766C197.922 188.896 206.104 197.078 216.234 197.078H315.324V159.675Z" fill="#080717"/>
<path d="M225.065 124.48H64.1554C54.0256 124.48 45.8438 132.662 45.8438 142.792V143.571C45.8438 153.701 54.0256 161.883 64.1554 161.883H225.065V124.48Z" fill="#080717"/>
<path d="M196.364 160.584C187.013 160.584 179.351 152.922 179.351 143.572V142.792C179.351 133.442 187.013 125.779 196.364 125.779H294.156V160.584H196.364Z" fill="white"/>
<path d="M292.987 127.078V159.286H196.493C187.792 159.286 180.779 152.273 180.779 143.571V142.792C180.779 134.091 187.792 127.078 196.493 127.078H292.987ZM295.584 124.48H196.493C186.363 124.48 178.182 132.662 178.182 142.792V143.571C178.182 153.701 186.363 161.883 196.493 161.883H295.584V124.48Z" fill="#080717"/>
<path d="M62.3379 234.351H305.974C316.494 234.351 325.065 225.779 325.065 215.26C325.065 204.74 316.494 196.169 305.974 196.169H62.3379V234.351Z" fill="white"/>
<path d="M305.974 235.649H62.3378C61.5585 235.649 61.0391 235.13 61.0391 234.351V196.169C61.0391 195.39 61.5585 194.87 62.3378 194.87H305.974C317.143 194.87 326.364 203.961 326.364 215.26C326.364 226.429 317.273 235.649 305.974 235.649ZM63.6365 233.052H305.974C315.714 233.052 323.766 225.13 323.766 215.26C323.766 205.519 315.844 197.468 305.974 197.468H63.6365V233.052Z" fill="#080717"/>
<path d="M62.3379 234.351H160.26C170.779 234.351 179.351 225.779 179.351 215.26C179.351 204.74 170.779 196.169 160.26 196.169H62.3379V234.351Z" fill="white"/>
<path d="M160.26 235.649H62.3378C61.5585 235.649 61.0391 235.13 61.0391 234.351V196.169C61.0391 195.39 61.5585 194.87 62.3378 194.87H160.26C171.429 194.87 180.649 203.961 180.649 215.26C180.649 226.429 171.429 235.649 160.26 235.649ZM63.6365 233.052H160.26C170 233.052 178.052 225.13 178.052 215.26C178.052 205.519 170.13 197.468 160.26 197.468H63.6365V233.052Z" fill="#080717"/>
<path d="M154.546 207.857H63.3768C62.5976 207.857 62.0781 207.338 62.0781 206.558C62.0781 205.779 62.5976 205.26 63.3768 205.26H154.546C155.325 205.26 155.844 205.779 155.844 206.558C155.844 207.208 155.325 207.857 154.546 207.857Z" fill="#080717"/>
<path d="M130 262.532V219.935H144.935H159.74V262.532L144.935 253.961L130 262.532Z" fill="#FFCD00"/>
<path d="M67.1426 271.364H297.532C307.272 271.364 315.195 263.441 315.195 253.701C315.195 243.961 307.272 236.039 297.532 236.039H67.1426V271.364Z" fill="#080717"/>
<path d="M297.662 272.662H67.1425C66.3632 272.662 65.8438 272.143 65.8438 271.364V235.909C65.8438 235.13 66.3632 234.61 67.1425 234.61H297.532C308.052 234.61 316.493 243.182 316.493 253.571C316.623 264.091 308.181 272.662 297.662 272.662ZM68.4412 270.065H297.532C306.623 270.065 313.896 262.662 313.896 253.701C313.896 244.61 306.493 237.338 297.532 237.338H68.4412V270.065Z" fill="#080717"/>
<path d="M67.1426 271.364H157.922C167.662 271.364 175.584 263.441 175.584 253.701C175.584 243.961 167.662 236.039 157.922 236.039H67.1426V271.364Z" fill="white"/>
<path d="M158.052 272.662H67.1425C66.3632 272.662 65.8438 272.143 65.8438 271.364V235.909C65.8438 235.13 66.3632 234.61 67.1425 234.61H157.922C168.441 234.61 176.883 243.182 176.883 253.571C177.013 264.091 168.571 272.662 158.052 272.662ZM68.4412 270.065H157.922C167.013 270.065 174.285 262.662 174.285 253.701C174.285 244.61 166.883 237.338 157.922 237.338H68.4412V270.065Z" fill="#080717"/>
<path d="M152.727 246.818H68.1815C67.4023 246.818 66.8828 246.299 66.8828 245.519C66.8828 244.74 67.4023 244.221 68.1815 244.221H152.857C153.636 244.221 154.156 244.74 154.156 245.519C154.026 246.299 153.506 246.818 152.727 246.818Z" fill="#080717"/>
<path d="M107.532 256.688H69.0907C68.3115 256.688 67.792 256.169 67.792 255.39C67.792 254.61 68.3115 254.091 69.0907 254.091H107.532C108.311 254.091 108.831 254.61 108.831 255.39C108.831 256.169 108.182 256.688 107.532 256.688Z" fill="#080717"/>
<path d="M135.974 126.559C135.584 126.559 135.325 126.559 135.065 126.429C122.208 124.091 100.779 107.208 81.6883 90.8442C67.1429 78.5066 65.7143 68.3767 66.2338 63.3118C66.6234 59.2858 68.3117 56.039 70.9091 54.6105C74.6753 52.4027 79.2208 53.4416 83.5065 54.3507C85.974 54.8702 88.3117 55.3897 90.3896 55.3897C92.7273 55.2598 94.2857 53.3118 96.1039 50.9741C98.052 48.5066 100.13 45.6494 103.766 45.3897C106.494 45.1299 109.87 46.5585 113.377 47.9871C118.312 49.9351 123.766 52.1429 128.701 50.7144C131.558 49.9351 134.026 47.5975 137.143 44.6105C142.987 39.1559 150.909 31.7533 167.403 29.1559C176.493 27.5975 185.584 29.9351 193.636 35.9092C204.675 44.091 210.909 56.2988 211.688 62.5325C213.117 73.052 195.325 76.8182 192.078 77.4676C186.493 83.9611 149.351 126.559 135.974 126.559ZM76.1039 56.039C74.6753 56.039 73.2468 56.2988 72.0779 56.9481C70.6494 57.7273 68.9611 60.065 68.7013 63.7014C68.4416 67.3377 69.2208 76.9481 83.2468 89.026C101.039 104.091 122.987 121.753 135.455 123.961C138.052 124.481 145.584 122.013 166.883 100.714C179.221 88.3767 190.13 75.6494 190.26 75.5195C190.519 75.2598 190.779 75.1299 191.039 75.1299C196.364 74.2208 210 70.3247 208.961 63.052C208.182 57.4676 202.208 45.7793 191.948 38.117C184.416 32.4027 176.364 30.3247 167.792 31.7533C152.078 34.3507 144.805 41.104 138.961 46.5585C135.714 49.5455 132.857 52.1429 129.481 53.1819C123.766 54.8702 117.792 52.4027 112.468 50.3247C109.221 49.026 106.104 47.8572 104.026 47.9871C101.558 48.1169 100 50.3247 98.1818 52.5325C96.2338 55.0001 94.1558 57.8572 90.5195 57.9871C88.052 58.1169 85.4546 57.4676 82.987 56.9481C80.5195 56.4286 78.1818 56.039 76.1039 56.039Z" fill="#080717"/>
<path d="M192.987 77.2079C192.987 77.2079 214.675 72.4027 213.766 61.3637C212.857 50.3248 196.883 22.6624 170.259 28.5066C143.766 34.3507 137.922 50.7144 128.311 54.091C118.701 57.4676 108.441 48.8962 101.948 49.6754C95.4542 50.4546 93.5062 60.7144 87.2724 61.3637C81.0386 62.0131 73.1166 57.5975 67.4023 61.3637C61.5581 65.13 57.4023 80.8442 77.2724 97.9871C97.1425 115.13 118.311 131.883 131.039 133.572C143.896 135.39 192.987 77.2079 192.987 77.2079Z" fill="black"/>
<path d="M212.857 79.5455C212.597 79.5455 212.338 79.4156 212.078 79.2857C211.558 78.8961 211.428 77.987 211.818 77.4676C213.377 75.5195 214.156 73.3117 214.286 70.8442C214.545 64.6104 209.61 59.4156 203.377 59.1559C197.143 58.8961 191.948 63.8312 191.688 70.065C191.688 70.8442 191.039 71.3637 190.39 71.3637C189.61 71.3637 189.091 70.7143 189.091 70.065C189.351 62.4026 195.844 56.4286 203.506 56.6883C211.169 56.9481 217.143 63.4416 216.883 71.1039C216.753 74.0909 215.714 76.9481 213.896 79.2857C213.506 79.4156 213.247 79.5455 212.857 79.5455Z" fill="#080717"/>
<path d="M213.527 70.5667C214.177 64.2163 209.556 58.5415 203.205 57.8916C196.855 57.2417 191.18 61.8629 190.53 68.2133C189.88 74.5637 194.502 80.2385 200.852 80.8884C207.202 81.5382 212.877 76.917 213.527 70.5667Z" fill="#080717"/>
<path d="M142.598 140.455L100.909 150.195C91.8184 152.403 82.3379 148.117 77.9223 139.675C73.247 130.844 75.5846 120.065 83.3768 113.831L99.221 101.234C116.234 87.7274 137.403 80.5845 159.091 80.9741L199.611 81.6235C209.611 81.4936 219.611 82.1429 229.611 83.7014L260 88.5066C280.65 91.7533 283.117 120.455 263.377 127.208L239.351 132.533L209.481 122.533L142.598 140.455Z" fill="#3B82F6"/>
<path d="M154.936 103.182C160.26 108.247 168.702 107.987 173.767 102.662L192.598 82.7921C197.663 77.4674 197.403 69.0259 192.079 63.9609C186.754 58.896 178.312 59.1557 173.247 64.4804L154.416 84.3505C149.351 89.6752 149.611 98.1168 154.936 103.182Z" fill="white"/>
<path d="M164.156 108.117C160.52 108.117 156.883 106.818 154.026 104.091C148.182 98.5065 147.922 89.2857 153.507 83.3117L172.338 63.4415C177.922 57.5974 187.143 57.3377 193.117 62.9221C195.974 65.6493 197.533 69.2857 197.662 73.1818C197.792 77.0779 196.364 80.8441 193.636 83.7013L174.805 103.571C171.818 106.558 168.052 108.117 164.156 108.117ZM155.844 102.273C160.649 106.818 168.312 106.688 172.857 101.753L191.688 81.8831C193.896 79.5454 195.065 76.4286 194.935 73.3117C194.805 70.0649 193.507 67.0779 191.169 64.8701C186.364 60.3247 178.701 60.4545 174.156 65.3896L155.325 85.2597C150.779 90.0649 151.039 97.5974 155.844 102.273Z" fill="#080717"/>
<path d="M142.468 103.961C142.468 103.961 164.675 105.779 175.195 106.169C185.714 106.688 201.039 111.493 201.039 111.493C217.273 115.13 227.663 126.039 228.052 126.558C229.611 128.247 229.481 130.844 227.922 132.402C226.234 133.961 223.637 133.831 222.078 132.273C222.078 132.273 220.779 130.974 218.701 129.286C221.818 133.961 222.987 137.727 223.117 137.987C223.766 140.195 222.468 142.403 220.26 143.052C218.701 143.441 217.143 143.052 216.104 141.883C215.714 141.364 215.325 140.844 215.195 140.195C215.195 140.195 214.805 139.156 214.156 137.597C214.546 139.156 214.675 140.195 214.675 140.325C214.935 142.532 213.247 144.61 211.039 144.87C209.74 145 208.442 144.48 207.533 143.571C207.013 142.922 206.494 142.143 206.494 141.234C206.494 141.104 205.455 133.961 199.481 127.078C203.766 132.792 204.416 138.117 204.416 138.377C204.675 140.584 203.117 142.662 200.779 142.922C199.481 143.052 198.182 142.532 197.273 141.623C196.753 140.974 196.364 140.195 196.234 139.286C196.234 139.026 195.714 135.39 192.468 131.493C187.403 134.48 180.909 130.325 180.909 130.325C180.909 130.325 144.026 141.493 142.598 140.584C141.169 139.545 134.805 136.688 133.117 124.48C131.429 111.753 142.468 103.961 142.468 103.961Z" fill="white"/>
<path d="M210.519 146.169C209.091 146.169 207.532 145.52 206.493 144.481C205.714 143.571 205.195 142.532 205.065 141.364C205.065 141.364 205.065 141.364 205.065 141.234C204.286 142.792 202.727 143.961 200.909 144.221C199.221 144.481 197.532 143.831 196.234 142.532C195.454 141.753 194.935 140.714 194.805 139.545C194.805 139.545 194.415 136.558 191.948 133.182C187.403 135.13 182.208 132.662 180.649 131.753C143.766 143.052 142.467 142.013 141.818 141.623C141.688 141.494 141.558 141.494 141.428 141.364C139.221 139.935 133.506 136.299 131.948 124.74C130.13 111.364 141.299 103.312 141.818 103.052C142.078 102.922 142.338 102.792 142.727 102.792C142.987 102.792 165.065 104.61 175.454 105C186.104 105.52 201.039 110.195 201.688 110.325C218.182 113.961 228.831 125.26 229.351 125.649C231.428 127.857 231.299 131.234 229.091 133.312C227.532 134.74 225.325 135.13 223.377 134.481C224.156 136.169 224.545 137.338 224.545 137.597C225.325 140.455 223.766 143.442 220.779 144.351C218.961 144.87 217.013 144.481 215.584 143.182C214.805 144.87 213.247 146.169 211.299 146.299C210.909 146.169 210.779 146.169 210.519 146.169ZM199.48 125.779C199.87 125.779 200.26 125.909 200.519 126.169C206.883 133.442 207.792 140.974 207.792 140.974C207.922 141.623 208.182 142.143 208.571 142.532C209.221 143.182 210.13 143.571 210.909 143.442C212.467 143.312 213.506 141.883 213.377 140.325C213.377 140.325 213.247 139.286 212.857 137.727C212.727 137.078 212.987 136.429 213.636 136.169C214.286 135.909 214.935 136.169 215.195 136.818C215.974 138.507 216.364 139.675 216.364 139.675C216.493 140.065 216.753 140.455 217.013 140.844C217.792 141.623 218.831 141.883 219.87 141.623C221.299 141.234 222.208 139.675 221.818 138.117C221.818 137.987 220.779 134.351 217.662 129.805C217.273 129.286 217.402 128.507 217.792 128.117C218.312 127.727 218.961 127.597 219.48 128.117C221.688 129.935 222.987 131.234 222.987 131.234C224.026 132.403 225.844 132.403 227.013 131.364C228.182 130.325 228.182 128.507 227.143 127.338C226.753 126.948 216.623 116.299 200.779 112.662C200.519 112.532 185.325 107.857 175.065 107.468C165.454 107.078 146.104 105.52 142.727 105.26C140.909 106.688 132.857 113.701 134.286 124.221C135.714 134.74 140.779 137.857 142.597 139.026C142.727 139.156 142.857 139.156 142.857 139.286C145.844 139.286 167.143 133.052 180.26 129.026C180.649 128.896 181.039 129.026 181.299 129.156C181.299 129.156 187.143 132.792 191.428 130.325C191.948 129.935 192.727 130.065 193.117 130.584C196.493 134.87 197.143 138.896 197.143 139.026C197.273 139.675 197.532 140.195 197.922 140.584C198.571 141.234 199.48 141.623 200.39 141.494C201.948 141.364 202.987 139.935 202.857 138.377C202.857 138.117 202.208 133.182 198.182 127.727C197.792 127.208 197.922 126.429 198.441 125.909C198.831 125.779 199.221 125.779 199.48 125.779Z" fill="#080717"/>
<path d="M209.74 118.377C209.74 118.377 216.104 123.961 218.831 129.156L209.74 118.377Z" fill="white"/>
<path d="M218.702 130.325C218.182 130.325 217.793 130.065 217.533 129.675C215.065 124.74 208.832 119.415 208.832 119.286C208.312 118.766 208.182 117.987 208.702 117.467C209.221 116.948 210.001 116.818 210.52 117.338C210.78 117.597 217.143 123.052 219.871 128.506C220.26 129.156 220 129.935 219.351 130.195C219.221 130.325 218.962 130.325 218.702 130.325Z" fill="#1F4142"/>
<path d="M206.104 122.403C206.104 122.403 212.468 129.416 214.156 137.338L206.104 122.403Z" fill="white"/>
<path d="M214.156 138.766C213.507 138.766 212.987 138.377 212.857 137.727C211.299 130.195 205.195 123.442 205.195 123.312C204.675 122.792 204.805 122.013 205.325 121.494C205.844 120.974 206.624 121.104 207.143 121.623C207.403 121.883 213.766 129.026 215.455 137.208C215.585 137.857 215.195 138.636 214.416 138.766C214.286 138.766 214.156 138.766 214.156 138.766Z" fill="#1F4142"/>
<path d="M242.988 95.13C242.988 95.13 220.78 95.2598 210.131 95.0001C199.611 94.7404 183.897 98.3767 183.897 98.3767C167.403 100.844 156.235 110.974 155.845 111.364C154.157 112.922 154.027 115.52 155.585 117.208C157.144 118.896 159.741 119.026 161.429 117.468C161.429 117.468 162.728 116.299 165.066 114.74C161.559 119.156 160.131 122.792 160.131 123.052C159.351 125.13 160.39 127.597 162.598 128.377C164.157 128.896 165.715 128.507 166.884 127.597C167.403 127.208 167.663 126.688 167.923 126.039C167.923 126.039 168.312 125 169.222 123.572C168.702 125.13 168.442 126.169 168.442 126.299C168.053 128.507 169.481 130.714 171.689 131.104C172.988 131.364 174.287 130.974 175.325 130.065C175.975 129.546 176.364 128.766 176.624 127.857C176.624 127.727 178.183 120.585 184.546 114.221C179.871 119.675 178.832 124.87 178.832 125.13C178.442 127.338 179.871 129.546 182.079 129.935C183.377 130.195 184.676 129.805 185.715 128.896C186.364 128.377 186.754 127.597 187.014 126.688C187.014 126.429 187.793 122.922 191.299 119.156C196.105 122.533 202.858 118.896 202.858 118.896C202.858 118.896 238.702 132.792 240.261 131.883C241.819 130.974 248.312 128.507 250.91 116.559C253.507 103.701 242.988 95.13 242.988 95.13Z" fill="white"/>
<path d="M240.13 132.922C238.312 132.922 231.819 131.234 202.858 120.065C201.169 120.844 195.845 122.922 191.429 120.584C188.832 123.831 188.182 126.688 188.182 126.688C187.923 127.857 187.403 128.766 186.494 129.545C185.195 130.714 183.507 131.234 181.819 130.844C180.001 130.455 178.572 129.156 177.793 127.597C177.793 127.727 177.793 127.727 177.793 127.727C177.533 128.896 177.014 129.935 176.104 130.714C174.806 131.883 173.117 132.403 171.429 132.013C169.481 131.623 167.923 130.325 167.403 128.506C165.975 129.675 163.897 129.935 162.208 129.286C159.481 128.247 157.923 125.13 158.962 122.273C159.091 122.013 159.481 120.974 160.39 119.286C158.442 119.935 156.234 119.416 154.806 117.727C152.728 115.519 152.988 112.143 155.065 110.065C155.585 109.675 167.014 99.2857 183.897 96.6883C184.416 96.5584 199.741 92.9221 210.39 93.3117C220.78 93.5714 242.988 93.4415 243.117 93.4415C243.377 93.4415 243.767 93.5714 243.897 93.7013C244.286 94.0909 254.936 102.922 252.078 116.039C249.611 127.597 243.637 130.714 241.299 132.013C241.169 132.143 240.91 132.143 240.78 132.273C240.78 132.792 240.65 132.922 240.13 132.922ZM202.728 117.468C202.858 117.468 202.988 117.468 203.247 117.597C215.975 122.532 236.754 130.195 239.741 130.455C239.871 130.455 240.001 130.325 240.001 130.325C241.949 129.286 247.143 126.429 249.481 116.169C251.689 105.779 244.156 98.2467 242.468 96.6883C239.091 96.6883 219.741 96.8182 210.13 96.5584C199.871 96.2987 184.416 99.8052 184.286 99.935C168.052 102.403 157.273 112.143 156.754 112.662C155.585 113.701 155.585 115.519 156.624 116.688C157.663 117.857 159.481 117.857 160.65 116.818C160.65 116.818 161.949 115.649 164.416 113.961C164.936 113.571 165.715 113.701 166.104 114.091C166.494 114.61 166.624 115.26 166.104 115.779C162.728 120.065 161.429 123.571 161.299 123.701C160.78 125.13 161.559 126.818 162.988 127.338C164.027 127.727 165.065 127.468 165.845 126.818C166.234 126.558 166.364 126.169 166.624 125.779C166.624 125.779 167.014 124.74 168.052 123.052C168.442 122.532 169.091 122.273 169.741 122.532C170.39 122.792 170.65 123.442 170.39 124.091C169.871 125.649 169.741 126.688 169.741 126.688C169.481 128.247 170.52 129.675 171.949 129.935C172.858 130.065 173.767 129.805 174.416 129.286C174.806 128.896 175.195 128.377 175.325 127.727C175.325 127.597 176.884 120.195 183.637 113.442C184.156 112.922 184.936 112.922 185.455 113.442C185.975 113.961 185.975 114.74 185.585 115.26C181.169 120.455 180.26 125.39 180.13 125.519C179.871 127.078 180.91 128.506 182.338 128.766C183.247 128.896 184.156 128.636 184.806 128.117C185.195 127.727 185.585 127.208 185.715 126.558C185.715 126.429 186.624 122.403 190.26 118.377C190.65 117.857 191.429 117.857 191.949 118.247C195.975 121.104 202.078 117.857 202.208 117.857C202.338 117.468 202.598 117.468 202.728 117.468Z" fill="#080717"/>
<path d="M174.936 104.61C174.936 104.61 168.182 109.675 165.195 114.74L174.936 104.61Z" fill="white"/>
<path d="M165.066 116.039C164.806 116.039 164.546 116.039 164.416 115.909C163.767 115.52 163.637 114.74 164.027 114.091C167.144 108.896 173.897 103.831 174.157 103.701C174.676 103.312 175.585 103.442 175.975 103.961C176.364 104.481 176.235 105.39 175.715 105.779C175.585 105.779 169.092 110.714 166.235 115.52C165.975 115.779 165.585 116.039 165.066 116.039Z" fill="#080717"/>
<path d="M178.312 109.026C178.312 109.026 171.428 115.649 169.221 123.442L178.312 109.026Z" fill="white"/>
<path d="M169.221 124.74C169.091 124.74 168.961 124.74 168.831 124.74C168.182 124.481 167.792 123.831 167.922 123.182C170.26 115.13 177.013 108.507 177.403 108.247C177.922 107.727 178.702 107.727 179.221 108.247C179.741 108.766 179.741 109.545 179.221 110.065C179.091 110.065 172.598 116.558 170.52 123.831C170.26 124.351 169.741 124.74 169.221 124.74Z" fill="#080717"/>
<path d="M167.792 85.1297C168.961 91.7531 173.896 97.4674 180.909 99.1557C190.26 101.364 199.61 95.6492 201.818 86.2986L206.104 68.1167C208.311 58.7661 202.597 49.4154 193.247 47.2077C183.896 44.9999 174.545 50.7142 172.337 60.0648L167.792 85.1297Z" fill="white"/>
<path d="M184.935 100.974C183.507 100.974 181.948 100.844 180.52 100.455C173.247 98.7662 167.662 92.7922 166.364 85.3896C166.234 84.7402 166.753 83.961 167.403 83.8311C168.182 83.7013 168.831 84.2207 168.961 84.8701C170 91.2337 174.805 96.4285 181.039 97.8571C189.611 99.935 198.442 94.6104 200.39 85.9091L204.675 67.7272C206.753 59.1558 201.429 50.4545 192.727 48.3766C184.156 46.2987 175.455 51.6233 173.377 60.3246C173.247 60.974 172.468 61.4935 171.818 61.2337C171.169 61.1039 170.649 60.3246 170.909 59.6753C173.247 49.6753 183.377 43.4415 193.507 45.7792C198.312 46.948 202.468 49.935 205.065 54.2207C207.662 58.5065 208.442 63.4415 207.273 68.3766L202.987 86.5584C201.818 91.3636 198.831 95.5194 194.546 98.1168C191.688 100.065 188.312 100.974 184.935 100.974Z" fill="#080717"/>
<path d="M179.87 45.6493C177.792 46.2987 175.844 47.0779 174.025 48.1169C173.246 50.8441 173.116 53.8312 173.896 56.5584C176.623 66.2987 188.701 71.3636 200.779 67.987C202.857 67.3377 204.805 66.5584 206.623 65.5195C207.402 62.7922 207.532 59.8052 206.753 57.0779C204.025 47.3377 191.948 42.2727 179.87 45.6493Z" fill="#080717"/>
<path d="M177.143 69.4156C179.87 66.5584 179.74 62.1428 176.883 59.5454C174.026 56.8182 169.61 56.948 167.013 59.8052C164.285 62.6623 164.415 67.0779 167.272 69.6753C168.441 70.8441 169.87 71.3636 171.428 71.6234L177.143 69.4156Z" fill="white"/>
<path d="M197.273 82.013C196.753 83.0519 196.883 84.2208 197.662 84.6104C198.442 85 199.481 84.4805 200 83.3117C200.519 82.2727 200.39 81.1039 199.61 80.7143C198.831 80.3247 197.792 80.8441 197.273 82.013ZM188.831 79.026C188.312 80.0649 188.442 81.2338 189.221 81.6234C190 82.013 191.039 81.4935 191.558 80.3247C192.078 79.2857 191.948 78.1169 191.169 77.7273C190.39 77.3377 189.351 77.987 188.831 79.026ZM188.442 92.1428C188.182 92.1428 187.922 92.1429 187.792 92.013C186.104 90.974 184.935 89.2857 184.675 87.3377C184.545 86.6883 185.065 85.9091 185.714 85.9091C186.364 85.7792 187.143 86.2987 187.143 86.948C187.273 88.1169 188.052 89.1558 189.091 89.8052C189.74 90.1948 189.87 90.974 189.48 91.6234C189.351 92.013 188.831 92.1428 188.442 92.1428ZM192.208 87.8571C192.078 87.8571 191.948 87.8571 191.818 87.7273C191.169 87.4675 190.779 86.8182 191.039 86.039L193.117 79.8052C193.377 79.1558 194.026 78.7662 194.805 79.026C195.455 79.2857 195.844 79.9351 195.584 80.7143L193.506 86.948C193.247 87.4675 192.727 87.8571 192.208 87.8571ZM202.597 80.7143C202.208 80.7143 201.688 80.4545 201.429 80.0649C200.909 79.2857 200.26 78.5065 199.481 77.987C198.831 77.5974 198.701 76.8182 199.091 76.1688C199.481 75.5195 200.26 75.3896 200.909 75.7792C201.948 76.5584 202.987 77.4675 203.636 78.6364C204.026 79.2857 203.766 80.0649 203.247 80.4545C202.987 80.7143 202.857 80.7143 202.597 80.7143Z" fill="#080717"/>
<path d="M193.377 76.1689C192.987 76.1689 192.727 76.039 192.467 75.7793C191.948 75.2598 190.909 75.1299 190.26 75.5195C189.61 75.9091 188.831 75.6494 188.442 75.1299C188.052 74.4806 188.312 73.7013 188.831 73.3117C190.519 72.2728 192.857 72.5325 194.286 73.8312C194.805 74.3507 194.805 75.1299 194.286 75.6494C194.156 76.039 193.766 76.1689 193.377 76.1689Z" fill="#080717"/>
<path d="M103.767 109.675C103.117 109.675 102.598 109.156 102.468 108.506C102.338 107.857 102.858 107.208 103.637 107.078L142.468 102.532C143.247 102.402 143.767 102.922 143.897 103.701C144.027 104.351 143.507 105 142.728 105.13L103.897 109.675C103.767 109.675 103.767 109.675 103.767 109.675Z" fill="#080717"/>
<path d="M242.987 96.4287C242.338 96.4287 241.688 95.9092 241.688 95.13C241.688 94.3507 242.208 93.8313 242.987 93.8313L256.234 93.4417C257.013 93.4417 257.533 93.9611 257.533 94.7404C257.533 95.5196 257.013 96.0391 256.234 96.0391L242.987 96.4287Z" fill="#080717"/>
<path d="M35.1947 174.74C31.6882 174.74 28.8311 171.883 28.8311 168.377C28.8311 164.87 31.6882 162.013 35.1947 162.013C38.7012 162.013 41.5583 164.87 41.5583 168.377C41.5583 171.883 38.7012 174.74 35.1947 174.74ZM35.1947 164.61C33.1168 164.61 31.4285 166.299 31.4285 168.377C31.4285 170.455 33.1168 172.143 35.1947 172.143C37.2726 172.143 38.9609 170.455 38.9609 168.377C38.9609 166.299 37.2726 164.61 35.1947 164.61Z" fill="black"/>
<path d="M20.3311 219.781L19.4229 229.348L22.0086 229.594L22.9169 220.026L20.3311 219.781Z" fill="#282D33"/>
<path d="M5.44199 224.332L3.44043 225.987L9.5653 233.393L11.5669 231.738L5.44199 224.332Z" fill="#282D33"/>
<path d="M36.6245 227.315L29.2178 233.438L30.8728 235.44L38.2796 229.317L36.6245 227.315Z" fill="#282D33"/>
<path d="M247.143 208.506L250.78 211.234L255.974 215.13L250.91 219.156L247.273 222.013V215.26L247.143 208.506ZM246.234 205C245.325 205 244.546 205.649 244.546 206.688V215.39V224.091C244.546 225 245.325 225.779 246.234 225.779C246.624 225.779 246.884 225.649 247.273 225.39L252.468 221.364L258.572 216.558C259.481 215.909 259.351 214.61 258.572 213.961L252.468 209.286L247.273 205.39C246.884 205 246.624 205 246.234 205Z" fill="#080717"/>
<path d="M19.8706 231.104C20.0005 231.104 20.1304 231.104 20.2602 231.104C20.3901 231.104 20.52 231.104 20.6498 231.104C24.9355 231.494 29.6109 235.779 33.1174 238.896C34.0265 239.675 34.8057 240.455 35.455 240.974C34.6758 241.623 33.8966 242.273 33.1174 243.052C29.7407 246.169 25.0654 250.455 20.6498 250.844C20.52 250.844 20.3901 250.844 20.3901 250.844C20.2602 250.844 20.1304 250.844 20.0005 250.844H19.8706H19.7407C19.6109 250.844 19.481 250.844 19.3511 250.844C19.2213 250.844 19.0914 250.844 18.9615 250.844C14.6758 250.455 10.0005 246.169 6.49399 243.052C5.5849 242.273 4.80568 241.623 4.15633 240.974C4.93555 240.325 5.71477 239.675 6.49399 238.896C9.87061 235.779 14.5459 231.494 18.9615 231.104C19.0914 231.104 19.2213 231.104 19.2213 231.104C19.3511 231.104 19.481 231.104 19.6109 231.104H19.7407H19.8706ZM19.8706 228.377C19.7407 228.377 19.7407 228.377 19.6109 228.377C19.481 228.377 19.481 228.377 19.3511 228.377C19.2213 228.377 18.9615 228.377 18.8317 228.377C18.7018 228.377 18.5719 228.377 18.442 228.377C11.1693 229.026 4.2862 237.727 0.519962 240.195C-0.259258 240.714 -0.259258 240.974 0.519962 241.494C4.2862 243.961 11.1693 252.662 18.442 253.312C18.5719 253.312 18.7018 253.312 18.8317 253.312C18.9615 253.312 19.2213 253.312 19.3511 253.312C19.481 253.312 19.481 253.312 19.6109 253.312C19.7407 253.312 19.7407 253.312 19.8706 253.312C20.0005 253.312 20.2602 253.312 20.3901 253.312C20.52 253.312 20.6498 253.312 20.7797 253.312C27.9226 252.662 34.5459 244.351 38.442 241.623C39.3511 240.974 39.3511 240.455 38.442 239.805C34.5459 237.078 27.9226 228.896 20.9096 228.247C20.7797 228.247 20.6498 228.247 20.52 228.247C20.2602 228.507 20.1304 228.377 19.8706 228.377Z" fill="#080717"/>
<path d="M24.0263 241.753C22.2081 241.753 20.7795 240.325 20.7795 238.507C20.7795 236.948 21.8185 235.779 23.247 235.39C22.2081 234.74 20.9094 234.351 19.6107 234.351C15.8444 234.351 12.8574 237.338 12.8574 241.104C12.8574 244.87 15.8444 247.857 19.6107 247.857C23.3769 247.857 26.3639 244.87 26.3639 241.104C26.3639 240.974 26.3639 240.974 26.3639 240.844C25.7146 241.364 24.9353 241.753 24.0263 241.753Z" fill="#080717"/>
<path d="M12.4672 87.9871V100.195H8.96068V87.9871H12.4672ZM15.0646 85.3896H6.36328V102.792H15.0646V85.3896ZM23.7659 87.9871V100.195H20.2594V87.9871H23.7659ZM26.3633 85.3896H17.662V102.792H26.3633V85.3896Z" fill="black"/>
</g>
<defs>
<clipPath id="clip0_2398_15727">
<rect width="360" height="360" fill="white"/>
</clipPath>
</defs>
</svg>
